<svg xmlns="http://www.w3.org/2000/svg" xmlns:xlink="http://www.w3.org/1999/xlink" width="60" zoomAndPan="magnify" viewBox="0 0 45 44.999999" height="60" preserveAspectRatio="xMidYMid meet" version="1.0"><defs><g/></defs><rect x="-4.5" width="54" fill="#ffffff" y="-4.5" height="53.999999" fill-opacity="1"/><rect x="-4.5" width="54" fill="#ffffff" y="-4.5" height="53.999999" fill-opacity="1"/><g fill="#141c2e" fill-opacity="1"><g transform="translate(9.314039, 29.154788)"><g><path d="M 2.859375 0.203125 C 2.273438 0.203125 1.753906 0.078125 1.296875 -0.171875 C 0.835938 -0.421875 0.476562 -0.765625 0.21875 -1.203125 C -0.0390625 -1.640625 -0.171875 -2.132812 -0.171875 -2.6875 C -0.171875 -2.9375 -0.140625 -3.203125 -0.078125 -3.484375 L 1.046875 -8.84375 C 1.160156 -9.363281 1.359375 -9.847656 1.640625 -10.296875 C 1.929688 -10.753906 2.285156 -11.15625 2.703125 -11.5 C 3.117188 -11.84375 3.570312 -12.109375 4.0625 -12.296875 C 4.550781 -12.492188 5.054688 -12.59375 5.578125 -12.59375 C 6.179688 -12.59375 6.707031 -12.460938 7.15625 -12.203125 C 7.613281 -11.941406 7.96875 -11.585938 8.21875 -11.140625 C 8.46875 -10.691406 8.59375 -10.1875 8.59375 -9.625 C 8.59375 -9.375 8.5625 -9.113281 8.5 -8.84375 L 8.265625 -7.75 L 5.859375 -7.75 L 6.171875 -9.15625 C 6.171875 -9.195312 6.171875 -9.238281 6.171875 -9.28125 C 6.179688 -9.320312 6.1875 -9.363281 6.1875 -9.40625 C 6.1875 -9.695312 6.085938 -9.941406 5.890625 -10.140625 C 5.703125 -10.347656 5.453125 -10.453125 5.140625 -10.453125 C 4.773438 -10.453125 4.441406 -10.320312 4.140625 -10.0625 C 3.847656 -9.800781 3.664062 -9.5 3.59375 -9.15625 L 2.328125 -3.171875 C 2.316406 -3.128906 2.304688 -3.078125 2.296875 -3.015625 C 2.296875 -2.960938 2.296875 -2.914062 2.296875 -2.875 C 2.296875 -2.59375 2.382812 -2.359375 2.5625 -2.171875 C 2.75 -1.984375 3 -1.890625 3.3125 -1.890625 C 3.675781 -1.890625 4.015625 -2.015625 4.328125 -2.265625 C 4.640625 -2.515625 4.832031 -2.816406 4.90625 -3.171875 L 5.203125 -4.625 L 7.609375 -4.625 L 7.375 -3.484375 C 7.269531 -2.972656 7.070312 -2.492188 6.78125 -2.046875 C 6.5 -1.597656 6.148438 -1.203125 5.734375 -0.859375 C 5.328125 -0.523438 4.875 -0.265625 4.375 -0.078125 C 3.882812 0.109375 3.378906 0.203125 2.859375 0.203125 Z M 2.859375 0.203125 "/></g></g></g><g fill="#141c2e" fill-opacity="1"><g transform="translate(17.599886, 29.154788)"><g><path d="M 8.953125 0 L 6.734375 0 L 8.875 -10.09375 L 5.359375 0 L 3.03125 0 L 3.8125 -10.1875 L 1.640625 0 L -0.640625 0 L 2.015625 -12.390625 L 5.671875 -12.390625 L 4.796875 -2.875 L 8 -12.390625 L 11.609375 -12.390625 Z M 8.953125 0 "/></g></g></g><g fill="#141c2e" fill-opacity="1"><g transform="translate(28.569685, 29.154788)"><g><path d="M 2.203125 0.203125 C 1.671875 0.203125 1.207031 0.09375 0.8125 -0.125 C 0.414062 -0.351562 0.113281 -0.664062 -0.09375 -1.0625 C -0.3125 -1.457031 -0.421875 -1.914062 -0.421875 -2.4375 C -0.421875 -2.695312 -0.394531 -2.972656 -0.34375 -3.265625 L -0.265625 -3.65625 L 1.875 -3.65625 L 1.796875 -3.265625 C 1.785156 -3.210938 1.773438 -3.160156 1.765625 -3.109375 C 1.765625 -3.054688 1.765625 -3 1.765625 -2.9375 C 1.765625 -2.6875 1.828125 -2.457031 1.953125 -2.25 C 2.078125 -2.050781 2.316406 -1.953125 2.671875 -1.953125 C 3.035156 -1.953125 3.328125 -2.046875 3.546875 -2.234375 C 3.765625 -2.429688 3.925781 -2.671875 4.03125 -2.953125 C 4.132812 -3.234375 4.1875 -3.503906 4.1875 -3.765625 C 4.1875 -4.078125 4.082031 -4.332031 3.875 -4.53125 C 3.664062 -4.738281 3.414062 -4.925781 3.125 -5.09375 C 2.9375 -5.195312 2.710938 -5.335938 2.453125 -5.515625 C 2.191406 -5.703125 1.9375 -5.929688 1.6875 -6.203125 C 1.4375 -6.472656 1.226562 -6.789062 1.0625 -7.15625 C 0.894531 -7.53125 0.8125 -7.957031 0.8125 -8.4375 C 0.8125 -8.988281 0.898438 -9.507812 1.078125 -10 C 1.265625 -10.5 1.535156 -10.941406 1.890625 -11.328125 C 2.242188 -11.722656 2.671875 -12.03125 3.171875 -12.25 C 3.679688 -12.476562 4.253906 -12.59375 4.890625 -12.59375 C 5.710938 -12.59375 6.34375 -12.351562 6.78125 -11.875 C 7.226562 -11.394531 7.453125 -10.726562 7.453125 -9.875 C 7.453125 -9.6875 7.4375 -9.488281 7.40625 -9.28125 C 7.382812 -9.070312 7.351562 -8.859375 7.3125 -8.640625 L 5.15625 -8.640625 C 5.195312 -8.804688 5.222656 -8.957031 5.234375 -9.09375 C 5.253906 -9.238281 5.265625 -9.375 5.265625 -9.5 C 5.265625 -9.820312 5.195312 -10.0625 5.0625 -10.21875 C 4.9375 -10.375 4.726562 -10.453125 4.4375 -10.453125 C 4.070312 -10.453125 3.785156 -10.359375 3.578125 -10.171875 C 3.367188 -9.984375 3.21875 -9.765625 3.125 -9.515625 C 3.03125 -9.273438 2.984375 -9.0625 2.984375 -8.875 C 2.984375 -8.601562 3.050781 -8.359375 3.1875 -8.140625 C 3.332031 -7.921875 3.503906 -7.726562 3.703125 -7.5625 C 3.910156 -7.40625 4.109375 -7.269531 4.296875 -7.15625 C 4.921875 -6.789062 5.421875 -6.378906 5.796875 -5.921875 C 6.171875 -5.460938 6.359375 -4.878906 6.359375 -4.171875 C 6.359375 -3.566406 6.253906 -3 6.046875 -2.46875 C 5.835938 -1.9375 5.546875 -1.472656 5.171875 -1.078125 C 4.804688 -0.679688 4.367188 -0.367188 3.859375 -0.140625 C 3.347656 0.0859375 2.796875 0.203125 2.203125 0.203125 Z M 2.203125 0.203125 "/></g></g></g></svg>